<?xml version="1.0" encoding="UTF-8" standalone="no"?>
<!DOCTYPE svg PUBLIC "-//W3C//DTD SVG 1.1//EN"
 "http://www.w3.org/Graphics/SVG/1.1/DTD/svg11.dtd">
<!-- Generated by graphviz version 2.26.3 (20100126.1600)
 -->
<!-- Title: G Pages: 1 -->
<svg width="280pt" height="854pt"
 viewBox="0.00 0.00 280.00 854.00" xmlns="http://www.w3.org/2000/svg" xmlns:xlink="http://www.w3.org/1999/xlink">
<g id="graph1" class="graph" transform="scale(1 1) rotate(0) translate(4 850)">
<title>G</title>
<polygon fill="white" stroke="white" points="-4,5 -4,-850 277,-850 277,5 -4,5"/>
<g id="graph2" class="cluster"><title>cluster_Global</title>
<polyline fill="none" stroke="gray" points="20,-8 252,-8 "/>
<path fill="none" stroke="gray" d="M252,-8C258,-8 264,-14 264,-20"/>
<polyline fill="none" stroke="gray" points="264,-20 264,-826 "/>
<path fill="none" stroke="gray" d="M264,-826C264,-832 258,-838 252,-838"/>
<polyline fill="none" stroke="gray" points="252,-838 20,-838 "/>
<path fill="none" stroke="gray" d="M20,-838C14,-838 8,-832 8,-826"/>
<polyline fill="none" stroke="gray" points="8,-826 8,-20 "/>
<path fill="none" stroke="gray" d="M8,-20C8,-14 14,-8 20,-8"/>
<text text-anchor="middle" x="136" y="-824.1" font-family="Times Roman,serif" font-size="11.00" fill="gray">\</text>
</g>
<!-- \\Model -->
<g id="node2" class="node"><title>\\Model</title>
<polygon fill="none" stroke="black" points="241,-808 187,-808 187,-772 241,-772 241,-808"/>
<text text-anchor="middle" x="214" y="-787.1" font-family="Courier,monospace" font-size="11.00">Model</text>
</g>
<!-- \\Db -->
<g id="node10" class="node"><title>\\Db</title>
<polygon fill="none" stroke="black" points="85,-808 31,-808 31,-772 85,-772 85,-808"/>
<text text-anchor="middle" x="58" y="-787.1" font-family="Courier,monospace" font-size="11.00">Db</text>
</g>
<!-- \\Model&#45;&gt;\\Db -->
<g id="edge3" class="edge"><title>\\Model&#45;&gt;\\Db</title>
<path fill="none" stroke="black" d="M186.827,-790C161.515,-790 123.555,-790 95.3908,-790"/>
<polygon fill="none" stroke="black" points="95.123,-786.5 85.123,-790 95.123,-793.5 95.123,-786.5"/>
</g>
<!-- \\Router -->
<g id="node3" class="node"><title>\\Router</title>
<polygon fill="none" stroke="black" points="242,-754 186,-754 186,-718 242,-718 242,-754"/>
<text text-anchor="middle" x="214" y="-733.1" font-family="Courier,monospace" font-size="11.00">Router</text>
</g>
<!-- \\Controller -->
<g id="node4" class="node"><title>\\Controller</title>
<polygon fill="none" stroke="black" points="256,-700 172,-700 172,-664 256,-664 256,-700"/>
<text text-anchor="middle" x="214" y="-679.1" font-family="Courier,monospace" font-size="11.00">Controller</text>
</g>
<!-- \\Loader -->
<g id="node5" class="node"><title>\\Loader</title>
<polygon fill="none" stroke="black" points="242,-646 186,-646 186,-610 242,-610 242,-646"/>
<text text-anchor="middle" x="214" y="-625.1" font-family="Courier,monospace" font-size="11.00">Loader</text>
</g>
<!-- \\Uri -->
<g id="node6" class="node"><title>\\Uri</title>
<polygon fill="none" stroke="black" points="241,-592 187,-592 187,-556 241,-556 241,-592"/>
<text text-anchor="middle" x="214" y="-571.1" font-family="Courier,monospace" font-size="11.00">Uri</text>
</g>
<!-- \\Dispatcher -->
<g id="node8" class="node"><title>\\Dispatcher</title>
<polygon fill="none" stroke="black" points="100,-592 16,-592 16,-556 100,-556 100,-592"/>
<text text-anchor="middle" x="58" y="-571.1" font-family="Courier,monospace" font-size="11.00">Dispatcher</text>
</g>
<!-- \\Uri&#45;&gt;\\Dispatcher -->
<g id="edge5" class="edge"><title>\\Uri&#45;&gt;\\Dispatcher</title>
<path fill="none" stroke="black" d="M186.827,-574C165.804,-574 136.057,-574 110.444,-574"/>
<polygon fill="none" stroke="black" points="110.126,-570.5 100.126,-574 110.126,-577.5 110.126,-570.5"/>
</g>
<!-- \\View -->
<g id="node7" class="node"><title>\\View</title>
<polygon fill="none" stroke="black" points="241,-538 187,-538 187,-502 241,-502 241,-538"/>
<text text-anchor="middle" x="214" y="-517.1" font-family="Courier,monospace" font-size="11.00">View</text>
</g>
<!-- \\Request -->
<g id="node9" class="node"><title>\\Request</title>
<polygon fill="none" stroke="black" points="246,-484 182,-484 182,-448 246,-448 246,-484"/>
<text text-anchor="middle" x="214" y="-463.1" font-family="Courier,monospace" font-size="11.00">Request</text>
</g>
<!-- \\Debug -->
<g id="node11" class="node"><title>\\Debug</title>
<polygon fill="none" stroke="black" points="241,-430 187,-430 187,-394 241,-394 241,-430"/>
<text text-anchor="middle" x="214" y="-409.1" font-family="Courier,monospace" font-size="11.00">Debug</text>
</g>
<!-- \\Hash -->
<g id="node12" class="node"><title>\\Hash</title>
<polygon fill="none" stroke="black" points="241,-376 187,-376 187,-340 241,-340 241,-376"/>
<text text-anchor="middle" x="214" y="-355.1" font-family="Courier,monospace" font-size="11.00">Hash</text>
</g>
<!-- \\Session -->
<g id="node13" class="node"><title>\\Session</title>
<polygon fill="none" stroke="black" points="246,-322 182,-322 182,-286 246,-286 246,-322"/>
<text text-anchor="middle" x="214" y="-301.1" font-family="Courier,monospace" font-size="11.00">Session</text>
</g>
<!-- \\Cookie -->
<g id="node14" class="node"><title>\\Cookie</title>
<polygon fill="none" stroke="black" points="242,-268 186,-268 186,-232 242,-232 242,-268"/>
<text text-anchor="middle" x="214" y="-247.1" font-family="Courier,monospace" font-size="11.00">Cookie</text>
</g>
<!-- \\CSRF -->
<g id="node15" class="node"><title>\\CSRF</title>
<polygon fill="none" stroke="black" points="241,-214 187,-214 187,-178 241,-178 241,-214"/>
<text text-anchor="middle" x="214" y="-193.1" font-family="Courier,monospace" font-size="11.00">CSRF</text>
</g>
<!-- \\MsgCode -->
<g id="node16" class="node"><title>\\MsgCode</title>
<polygon fill="none" stroke="black" points="246,-160 182,-160 182,-124 246,-124 246,-160"/>
<text text-anchor="middle" x="214" y="-139.1" font-family="Courier,monospace" font-size="11.00">MsgCode</text>
</g>
<!-- \\Bootstrap -->
<g id="node17" class="node"><title>\\Bootstrap</title>
<polygon fill="none" stroke="black" points="252,-106 176,-106 176,-70 252,-70 252,-106"/>
<text text-anchor="middle" x="214" y="-85.1" font-family="Courier,monospace" font-size="11.00">Bootstrap</text>
</g>
<!-- \\Func -->
<g id="node18" class="node"><title>\\Func</title>
<polygon fill="none" stroke="black" points="241,-52 187,-52 187,-16 241,-16 241,-52"/>
<text text-anchor="middle" x="214" y="-31.1" font-family="Courier,monospace" font-size="11.00">Func</text>
</g>
</g>
</svg>
